<svg width="200" height="200" viewBox="0 0 200 200" fill="none" xmlns="http://www.w3.org/2000/svg">
<path d="M29.6954 49.2376C27.6182 50.0907 25.4422 51.1407 24.4036 51.8133C23.9255 52.125 23.4804 52.3711 23.4145 52.3711C23.3486 52.3711 22.5738 52.8469 21.6836 53.4375C19.9196 54.6187 17.7271 56.6366 16.4577 58.2771C15.073 60.0817 13.408 62.9363 13.0453 64.1831C12.9793 64.4128 12.8639 64.6753 12.7815 64.7737C12.6991 64.8722 12.5672 65.4628 12.4683 66.0862C12.3694 66.7096 12.2045 67.7268 12.1056 68.3666C11.7924 70.4173 12.221 75.9132 12.798 77.2256C12.8804 77.4061 12.9958 77.8162 13.0453 78.1279C13.2101 79.0138 15.4521 85.6253 16.0291 86.9377C16.161 87.2166 16.2599 87.5611 16.2599 87.6924C16.2599 87.84 16.3423 88.0041 16.4248 88.0533C16.5237 88.1025 16.5896 88.283 16.5896 88.4306C16.6061 88.5783 16.738 89.0048 16.9193 89.3658C17.1007 89.7267 17.2325 90.1532 17.249 90.3009C17.249 90.4485 17.3315 90.629 17.4139 90.6782C17.5128 90.7274 17.5787 90.9079 17.5787 91.0555C17.5952 91.2032 17.7271 91.6297 17.9084 91.9906C18.0898 92.3516 18.2217 92.7289 18.2381 92.8437C18.2381 93.0406 18.6008 93.9429 18.914 94.5663C18.9965 94.7304 19.0624 94.9437 19.0624 95.0421C19.0624 95.1405 19.1613 95.4522 19.2932 95.7311C19.524 96.2397 20.3812 98.6185 20.7604 99.7833C20.8593 100.095 20.9912 100.39 21.0571 100.44C21.1066 100.489 21.222 100.784 21.2879 101.096C21.3539 101.407 21.4692 101.768 21.5352 101.916C21.6011 102.047 21.8319 102.605 22.0297 103.146C22.2276 103.688 22.4584 104.278 22.5243 104.459C22.6067 104.639 22.821 105.263 23.0189 105.853C23.3651 106.903 23.975 108.577 24.3542 109.545C24.4696 109.807 24.5685 110.07 24.585 110.119C24.7168 110.66 25.096 111.563 25.7554 113.023C25.8873 113.302 25.9862 113.613 25.9862 113.712C25.9862 113.81 26.0521 114.023 26.1511 114.187C26.2335 114.335 26.5797 115.27 26.9094 116.271C27.2556 117.255 27.5853 118.141 27.6512 118.24C27.7172 118.322 27.8161 118.683 27.882 119.027C27.9479 119.355 28.0633 119.683 28.1458 119.733C28.2282 119.782 28.2941 119.946 28.2941 120.093C28.3106 120.241 28.4425 120.668 28.6238 121.029C28.8052 121.39 28.9371 121.816 28.... <truncated>
<path d="M15.3862 107.035C15.4356 107.428 15.5675 108.183 15.6829 108.724C15.8148 109.266 15.9632 110.037 16.0291 110.447C16.0786 110.841 16.194 111.284 16.2764 111.431C16.3423 111.563 16.4907 112.12 16.5896 112.662C16.6885 113.203 16.8698 114.204 17.0017 114.877C17.1336 115.549 17.3149 116.583 17.4139 117.173C17.5293 117.764 17.6611 118.305 17.7271 118.404C17.793 118.486 17.859 118.83 17.8919 119.142C17.9084 119.454 17.9908 119.979 18.0733 120.29C18.1557 120.602 18.2711 121.16 18.337 121.521C18.3865 121.882 18.5019 122.505 18.5843 122.915C18.6832 123.325 18.8151 124.064 18.8975 124.556C18.98 125.048 19.0954 125.639 19.1613 125.868C19.2108 126.098 19.3591 126.754 19.4745 127.345C19.5899 127.935 19.7053 128.411 19.7218 128.411C19.7548 128.411 20.1339 130.347 20.2823 131.282C20.3153 131.512 20.4636 132.283 20.6285 133.005C20.9087 134.334 21.1395 135.416 21.6011 137.68C21.7495 138.353 21.9638 139.419 22.1122 140.059C22.5243 141.897 22.854 143.586 23.0188 144.718C23.1178 145.293 23.2332 145.818 23.2826 145.9C23.365 146.031 23.5134 146.835 24.0244 149.738C24.1234 150.28 24.2717 150.788 24.3541 150.87C24.4366 150.969 24.5025 151.215 24.5025 151.445C24.5025 151.691 24.7333 152.938 25.0136 154.25C25.2938 155.562 25.5741 156.99 25.6565 157.449C25.7389 157.892 25.8873 158.565 25.9697 158.926C26.2994 160.156 27.0248 163.191 27.1566 163.847C27.2226 164.208 27.4369 165.061 27.6182 165.734C27.7996 166.407 28.0304 167.292 28.1458 167.703C28.2612 168.113 28.393 168.506 28.4755 168.605C28.5414 168.687 28.6403 169.048 28.7063 169.376C28.7722 169.721 28.9041 169.999 28.9865 169.999C29.0854 169.999 29.1019 170.114 29.0524 170.245C29.003 170.393 29.0195 170.623 29.1019 170.787C29.2668 171.099 29.4975 171.656 29.514 171.837C29.5305 171.886 29.58 172.001 29.6624 172.067C29.7283 172.132 29.7778 172.296 29.7778 172.427C29.7778 172.559 29.8932 172.92 30.0416 173.248C30.1734 173.592 30.3877 174.068 30.5031 174.347C30.6185 174.609 30.8823 175.2 31.0966 175.659C31.3109 176.102 31.4923 176.512 3... <truncated>
<path d="M171.114 151.319C173.191 150.465 175.367 149.415 176.405 148.743C176.884 148.431 177.329 148.185 177.395 148.185C177.461 148.185 178.235 147.709 179.126 147.119C180.889 145.937 183.082 143.92 184.351 142.279C185.736 140.474 187.401 137.62 187.764 136.373C187.83 136.143 187.945 135.881 188.028 135.782C188.11 135.684 188.242 135.093 188.341 134.47C188.44 133.847 188.605 132.829 188.703 132.19C189.017 130.139 188.588 124.643 188.011 123.331C187.929 123.15 187.813 122.74 187.764 122.428C187.599 121.542 185.357 114.931 184.78 113.618C184.648 113.34 184.549 112.995 184.549 112.864C184.549 112.716 184.467 112.552 184.384 112.503C184.285 112.454 184.219 112.273 184.219 112.126C184.203 111.978 184.071 111.551 183.89 111.19C183.708 110.829 183.577 110.403 183.56 110.255C183.56 110.108 183.478 109.927 183.395 109.878C183.296 109.829 183.23 109.648 183.23 109.501C183.214 109.353 183.082 108.926 182.901 108.566C182.719 108.205 182.587 107.827 182.571 107.712C182.571 107.516 182.208 106.613 181.895 105.99C181.813 105.826 181.747 105.612 181.747 105.514C181.747 105.416 181.648 105.104 181.516 104.825C181.285 104.316 180.428 101.938 180.049 100.773C179.95 100.461 179.818 100.166 179.752 100.117C179.703 100.067 179.587 99.7721 179.521 99.4604C179.455 99.1487 179.34 98.7878 179.274 98.6401C179.208 98.5089 178.977 97.9511 178.779 97.4097C178.582 96.8683 178.351 96.2777 178.285 96.0972C178.202 95.9168 177.988 95.2934 177.79 94.7028C177.444 93.6528 176.834 91.9794 176.455 91.0115C176.34 90.749 176.241 90.4865 176.224 90.4373C176.092 89.8959 175.713 88.9936 175.054 87.5335C174.922 87.2546 174.823 86.9429 174.823 86.8445C174.823 86.746 174.757 86.5328 174.658 86.3687C174.576 86.2211 174.229 85.2859 173.9 84.2852C173.554 83.3009 173.224 82.415 173.158 82.3165C173.092 82.2345 172.993 81.8736 172.927 81.5291C172.861 81.201 172.746 80.8728 172.663 80.8236C172.581 80.7744 172.515 80.6103 172.515 80.4627C172.498 80.315 172.367 79.8885 172.185 79.5276C172.004 79.1666 171.872 78.7401 171... <truncated>
<path d="M185.423 93.5215C185.373 93.1277 185.242 92.3731 185.126 91.8317C184.994 91.2903 184.846 90.5192 184.78 90.1091C184.731 89.7154 184.615 89.2724 184.533 89.1248C184.467 88.9935 184.318 88.4357 184.219 87.8944C184.121 87.353 183.939 86.3522 183.807 85.6796C183.675 85.007 183.494 83.9734 183.395 83.3828C183.28 82.7922 183.148 82.2508 183.082 82.1524C183.016 82.0704 182.95 81.7258 182.917 81.4141C182.901 81.1024 182.818 80.5775 182.736 80.2657C182.653 79.954 182.538 79.3962 182.472 79.0353C182.423 78.6744 182.307 78.051 182.225 77.6408C182.126 77.2307 181.994 76.4925 181.912 76.0003C181.829 75.5081 181.714 74.9175 181.648 74.6878C181.598 74.4582 181.45 73.8019 181.335 73.2113C181.219 72.6207 181.104 72.145 181.087 72.145C181.054 72.145 180.675 70.2091 180.527 69.274C180.494 69.0443 180.345 68.2732 180.181 67.5514C179.9 66.2225 179.67 65.1398 179.208 62.8758C179.06 62.2032 178.845 61.1368 178.697 60.497C178.285 58.6596 177.955 56.9698 177.79 55.8378C177.691 55.2636 177.576 54.7386 177.526 54.6566C177.444 54.5253 177.296 53.7215 176.785 50.8177C176.686 50.2763 176.537 49.7677 176.455 49.6857C176.373 49.5873 176.307 49.3412 176.307 49.1115C176.307 48.8654 176.076 47.6186 175.796 46.3061C175.515 44.9937 175.235 43.5664 175.153 43.107C175.07 42.6641 174.922 41.9915 174.839 41.6305C174.51 40.4001 173.784 37.3651 173.652 36.7089C173.587 36.3479 173.372 35.4948 173.191 34.8222C173.01 34.1496 172.779 33.2637 172.663 32.8535C172.548 32.4434 172.416 32.0497 172.334 31.9512C172.268 31.8692 172.169 31.5083 172.103 31.1802C172.037 30.8356 171.905 30.5568 171.823 30.5568C171.724 30.5568 171.707 30.4419 171.757 30.3107C171.806 30.163 171.79 29.9333 171.707 29.7693C171.542 29.4576 171.312 28.8998 171.295 28.7193C171.279 28.6701 171.229 28.5553 171.147 28.4896C171.081 28.424 171.031 28.26 171.031 28.1287C171.031 27.9975 170.916 27.6366 170.768 27.3084C170.636 26.9639 170.421 26.4882 170.306 26.2093C170.191 25.9468 169.927 25.3562 169.712 24.8968C169.498 24.4539 169.317 24.0437 1... <truncated>
</svg>
